<?xml version="1.0" encoding="UTF-8" standalone="no"?>
<!DOCTYPE svg PUBLIC "-//W3C//DTD SVG 1.1//EN"
 "http://www.w3.org/Graphics/SVG/1.1/DTD/svg11.dtd">
<!-- Generated by graphviz version 2.38.0 (20140413.2041)
 -->
<!-- Title: unnamed Pages: 1 -->
<svg width="913pt" height="556pt"
 viewBox="0.00 0.00 912.50 556.00" xmlns="http://www.w3.org/2000/svg" xmlns:xlink="http://www.w3.org/1999/xlink">
<g id="graph0" class="graph" transform="scale(1 1) rotate(0) translate(4 552)">
<title>unnamed</title>
<polygon fill="white" stroke="none" points="-4,4 -4,-552 908.5,-552 908.5,4 -4,4"/>
<!-- Node0xa3e5320 -->
<g id="node1" class="node"><title>Node0xa3e5320</title>
<polygon fill="none" stroke="black" points="274,-511.5 274,-547.5 378,-547.5 378,-511.5 274,-511.5"/>
<text text-anchor="middle" x="326" y="-525.8" font-family="Times,serif" font-size="14.00">CompoundStmt</text>
</g>
<!-- Node0xa3e4ea8 -->
<g id="node2" class="node"><title>Node0xa3e4ea8</title>
<polygon fill="none" stroke="black" points="73,-438.5 73,-474.5 141,-474.5 141,-438.5 73,-438.5"/>
<text text-anchor="middle" x="107" y="-452.8" font-family="Times,serif" font-size="14.00">DeclStmt</text>
</g>
<!-- Node0xa3e5320&#45;&gt;Node0xa3e4ea8 -->
<g id="edge1" class="edge"><title>Node0xa3e5320&#45;&gt;Node0xa3e4ea8</title>
<path fill="none" stroke="black" d="M273.997,-514.047C241.014,-504.571 197.309,-491.449 150.807,-475.145"/>
<polygon fill="black" stroke="black" points="151.754,-471.768 141.159,-471.731 149.418,-478.367 151.754,-471.768"/>
</g>
<!-- Node0xa3e4f08 -->
<g id="node3" class="node"><title>Node0xa3e4f08</title>
<polygon fill="none" stroke="black" points="159.5,-438.5 159.5,-474.5 260.5,-474.5 260.5,-438.5 159.5,-438.5"/>
<text text-anchor="middle" x="210" y="-452.8" font-family="Times,serif" font-size="14.00">BinaryOperator</text>
</g>
<!-- Node0xa3e5320&#45;&gt;Node0xa3e4f08 -->
<g id="edge2" class="edge"><title>Node0xa3e5320&#45;&gt;Node0xa3e4f08</title>
<path fill="none" stroke="black" d="M298.215,-511.494C282.833,-502.079 263.516,-490.255 246.883,-480.075"/>
<polygon fill="black" stroke="black" points="248.317,-476.849 237.96,-474.614 244.662,-482.819 248.317,-476.849"/>
</g>
<!-- Node0xa3e52b0 -->
<g id="node4" class="node"><title>Node0xa3e52b0</title>
<polygon fill="none" stroke="black" points="354,-438.5 354,-474.5 416,-474.5 416,-438.5 354,-438.5"/>
<text text-anchor="middle" x="385" y="-452.8" font-family="Times,serif" font-size="14.00">ForStmt</text>
</g>
<!-- Node0xa3e5320&#45;&gt;Node0xa3e52b0 -->
<g id="edge3" class="edge"><title>Node0xa3e5320&#45;&gt;Node0xa3e52b0</title>
<path fill="none" stroke="black" d="M340.282,-511.313C347.529,-502.592 356.464,-491.84 364.436,-482.246"/>
<polygon fill="black" stroke="black" points="367.15,-484.457 370.849,-474.529 361.766,-479.983 367.15,-484.457"/>
</g>
<!-- Node0xa3e5308 -->
<g id="node5" class="node"><title>Node0xa3e5308</title>
<polygon fill="none" stroke="black" points="566,-438.5 566,-474.5 646,-474.5 646,-438.5 566,-438.5"/>
<text text-anchor="middle" x="606" y="-452.8" font-family="Times,serif" font-size="14.00">ReturnStmt</text>
</g>
<!-- Node0xa3e5320&#45;&gt;Node0xa3e5308 -->
<g id="edge4" class="edge"><title>Node0xa3e5320&#45;&gt;Node0xa3e5308</title>
<path fill="none" stroke="black" d="M378.01,-515.312C428.76,-502.443 505.451,-482.996 555.632,-470.272"/>
<polygon fill="black" stroke="black" points="556.776,-473.593 565.609,-467.742 555.056,-466.807 556.776,-473.593"/>
</g>
<!-- Node0xa3e4ec0 -->
<g id="node6" class="node"><title>Node0xa3e4ec0</title>
<polygon fill="none" stroke="black" points="0,-365.5 0,-401.5 88,-401.5 88,-365.5 0,-365.5"/>
<text text-anchor="middle" x="44" y="-379.8" font-family="Times,serif" font-size="14.00">DeclRefExpr</text>
</g>
<!-- Node0xa3e4f08&#45;&gt;Node0xa3e4ec0 -->
<g id="edge5" class="edge"><title>Node0xa3e4f08&#45;&gt;Node0xa3e4ec0</title>
<path fill="none" stroke="black" d="M170.239,-438.494C147.207,-428.643 118.012,-416.156 93.5002,-405.672"/>
<polygon fill="black" stroke="black" points="94.5827,-402.328 84.012,-401.614 91.83,-408.764 94.5827,-402.328"/>
</g>
<!-- Node0xa3e4ee8 -->
<g id="node7" class="node"><title>Node0xa3e4ee8</title>
<polygon fill="none" stroke="black" points="106.5,-365.5 106.5,-401.5 197.5,-401.5 197.5,-365.5 106.5,-365.5"/>
<text text-anchor="middle" x="152" y="-379.8" font-family="Times,serif" font-size="14.00">IntegerLiteral</text>
</g>
<!-- Node0xa3e4f08&#45;&gt;Node0xa3e4ee8 -->
<g id="edge6" class="edge"><title>Node0xa3e4f08&#45;&gt;Node0xa3e4ee8</title>
<path fill="none" stroke="black" d="M195.96,-438.313C188.907,-429.679 180.228,-419.055 172.45,-409.534"/>
<polygon fill="black" stroke="black" points="174.948,-407.059 165.911,-401.529 169.527,-411.488 174.948,-407.059"/>
</g>
<!-- Node0xa3e4f78 -->
<g id="node8" class="node"><title>Node0xa3e4f78</title>
<polygon fill="none" stroke="black" points="215.5,-365.5 215.5,-401.5 316.5,-401.5 316.5,-365.5 215.5,-365.5"/>
<text text-anchor="middle" x="266" y="-379.8" font-family="Times,serif" font-size="14.00">BinaryOperator</text>
</g>
<!-- Node0xa3e52b0&#45;&gt;Node0xa3e4f78 -->
<g id="edge7" class="edge"><title>Node0xa3e52b0&#45;&gt;Node0xa3e4f78</title>
<path fill="none" stroke="black" d="M356.497,-438.494C340.57,-428.991 320.533,-417.036 303.363,-406.792"/>
<polygon fill="black" stroke="black" points="305.064,-403.732 294.683,-401.614 301.478,-409.743 305.064,-403.732"/>
</g>
<!-- Node0xa3e5000 -->
<g id="node9" class="node"><title>Node0xa3e5000</title>
<polygon fill="none" stroke="black" points="334.5,-365.5 334.5,-401.5 435.5,-401.5 435.5,-365.5 334.5,-365.5"/>
<text text-anchor="middle" x="385" y="-379.8" font-family="Times,serif" font-size="14.00">BinaryOperator</text>
</g>
<!-- Node0xa3e52b0&#45;&gt;Node0xa3e5000 -->
<g id="edge8" class="edge"><title>Node0xa3e52b0&#45;&gt;Node0xa3e5000</title>
<path fill="none" stroke="black" d="M385,-438.313C385,-430.289 385,-420.547 385,-411.569"/>
<polygon fill="black" stroke="black" points="388.5,-411.529 385,-401.529 381.5,-411.529 388.5,-411.529"/>
</g>
<!-- Node0xa3e5050 -->
<g id="node10" class="node"><title>Node0xa3e5050</title>
<polygon fill="none" stroke="black" points="454,-365.5 454,-401.5 552,-401.5 552,-365.5 454,-365.5"/>
<text text-anchor="middle" x="503" y="-379.8" font-family="Times,serif" font-size="14.00">UnaryOperator</text>
</g>
<!-- Node0xa3e52b0&#45;&gt;Node0xa3e5050 -->
<g id="edge9" class="edge"><title>Node0xa3e52b0&#45;&gt;Node0xa3e5050</title>
<path fill="none" stroke="black" d="M413.264,-438.494C429.057,-428.991 448.926,-417.036 465.951,-406.792"/>
<polygon fill="black" stroke="black" points="467.794,-409.768 474.558,-401.614 464.185,-403.77 467.794,-409.768"/>
</g>
<!-- Node0xa3e5288 -->
<g id="node11" class="node"><title>Node0xa3e5288</title>
<polygon fill="none" stroke="black" points="570,-365.5 570,-401.5 674,-401.5 674,-365.5 570,-365.5"/>
<text text-anchor="middle" x="622" y="-379.8" font-family="Times,serif" font-size="14.00">CompoundStmt</text>
</g>
<!-- Node0xa3e52b0&#45;&gt;Node0xa3e5288 -->
<g id="edge10" class="edge"><title>Node0xa3e52b0&#45;&gt;Node0xa3e5288</title>
<path fill="none" stroke="black" d="M416.472,-446.072C453.031,-435.119 514.221,-416.788 560.349,-402.969"/>
<polygon fill="black" stroke="black" points="561.374,-406.316 569.949,-400.093 559.365,-399.61 561.374,-406.316"/>
</g>
<!-- Node0xa3e52e8 -->
<g id="node33" class="node"><title>Node0xa3e52e8</title>
<polygon fill="none" stroke="black" points="692.5,-365.5 692.5,-401.5 783.5,-401.5 783.5,-365.5 692.5,-365.5"/>
<text text-anchor="middle" x="738" y="-379.8" font-family="Times,serif" font-size="14.00">IntegerLiteral</text>
</g>
<!-- Node0xa3e5308&#45;&gt;Node0xa3e52e8 -->
<g id="edge32" class="edge"><title>Node0xa3e5308&#45;&gt;Node0xa3e52e8</title>
<path fill="none" stroke="black" d="M637.617,-438.494C655.527,-428.861 678.123,-416.707 697.339,-406.37"/>
<polygon fill="black" stroke="black" points="699.034,-409.433 706.183,-401.614 695.718,-403.268 699.034,-409.433"/>
</g>
<!-- Node0xa3e4f30 -->
<g id="node12" class="node"><title>Node0xa3e4f30</title>
<polygon fill="none" stroke="black" points="35,-292.5 35,-328.5 123,-328.5 123,-292.5 35,-292.5"/>
<text text-anchor="middle" x="79" y="-306.8" font-family="Times,serif" font-size="14.00">DeclRefExpr</text>
</g>
<!-- Node0xa3e4f78&#45;&gt;Node0xa3e4f30 -->
<g id="edge11" class="edge"><title>Node0xa3e4f78&#45;&gt;Node0xa3e4f30</title>
<path fill="none" stroke="black" d="M221.209,-365.494C194.629,-355.402 160.762,-342.543 132.747,-331.906"/>
<polygon fill="black" stroke="black" points="133.694,-328.522 123.103,-328.245 131.209,-335.067 133.694,-328.522"/>
</g>
<!-- Node0xa3e4f58 -->
<g id="node13" class="node"><title>Node0xa3e4f58</title>
<polygon fill="none" stroke="black" points="141.5,-292.5 141.5,-328.5 232.5,-328.5 232.5,-292.5 141.5,-292.5"/>
<text text-anchor="middle" x="187" y="-306.8" font-family="Times,serif" font-size="14.00">IntegerLiteral</text>
</g>
<!-- Node0xa3e4f78&#45;&gt;Node0xa3e4f58 -->
<g id="edge12" class="edge"><title>Node0xa3e4f78&#45;&gt;Node0xa3e4f58</title>
<path fill="none" stroke="black" d="M246.876,-365.313C236.881,-356.33 224.49,-345.193 213.577,-335.386"/>
<polygon fill="black" stroke="black" points="215.725,-332.61 205.948,-328.529 211.046,-337.816 215.725,-332.61"/>
</g>
<!-- Node0xa3e4fe8 -->
<g id="node14" class="node"><title>Node0xa3e4fe8</title>
<polygon fill="none" stroke="black" points="251,-292.5 251,-328.5 361,-328.5 361,-292.5 251,-292.5"/>
<text text-anchor="middle" x="306" y="-306.8" font-family="Times,serif" font-size="14.00">ImplicitCastExpr</text>
</g>
<!-- Node0xa3e5000&#45;&gt;Node0xa3e4fe8 -->
<g id="edge13" class="edge"><title>Node0xa3e5000&#45;&gt;Node0xa3e4fe8</title>
<path fill="none" stroke="black" d="M365.876,-365.313C355.881,-356.33 343.49,-345.193 332.577,-335.386"/>
<polygon fill="black" stroke="black" points="334.725,-332.61 324.948,-328.529 330.046,-337.816 334.725,-332.61"/>
</g>
<!-- Node0xa3e4fc8 -->
<g id="node15" class="node"><title>Node0xa3e4fc8</title>
<polygon fill="none" stroke="black" points="379.5,-292.5 379.5,-328.5 470.5,-328.5 470.5,-292.5 379.5,-292.5"/>
<text text-anchor="middle" x="425" y="-306.8" font-family="Times,serif" font-size="14.00">IntegerLiteral</text>
</g>
<!-- Node0xa3e5000&#45;&gt;Node0xa3e4fc8 -->
<g id="edge14" class="edge"><title>Node0xa3e5000&#45;&gt;Node0xa3e4fc8</title>
<path fill="none" stroke="black" d="M394.683,-365.313C399.4,-356.941 405.171,-346.697 410.407,-337.403"/>
<polygon fill="black" stroke="black" points="413.547,-338.959 415.406,-328.529 407.448,-335.523 413.547,-338.959"/>
</g>
<!-- Node0xa3e5028 -->
<g id="node17" class="node"><title>Node0xa3e5028</title>
<polygon fill="none" stroke="black" points="489,-292.5 489,-328.5 577,-328.5 577,-292.5 489,-292.5"/>
<text text-anchor="middle" x="533" y="-306.8" font-family="Times,serif" font-size="14.00">DeclRefExpr</text>
</g>
<!-- Node0xa3e5050&#45;&gt;Node0xa3e5028 -->
<g id="edge16" class="edge"><title>Node0xa3e5050&#45;&gt;Node0xa3e5028</title>
<path fill="none" stroke="black" d="M510.262,-365.313C513.726,-357.115 517.948,-347.123 521.809,-337.985"/>
<polygon fill="black" stroke="black" points="525.137,-339.103 525.805,-328.529 518.688,-336.378 525.137,-339.103"/>
</g>
<!-- Node0xa3e5188 -->
<g id="node18" class="node"><title>Node0xa3e5188</title>
<polygon fill="none" stroke="black" points="595,-292.5 595,-328.5 649,-328.5 649,-292.5 595,-292.5"/>
<text text-anchor="middle" x="622" y="-306.8" font-family="Times,serif" font-size="14.00">IfStmt</text>
</g>
<!-- Node0xa3e5288&#45;&gt;Node0xa3e5188 -->
<g id="edge17" class="edge"><title>Node0xa3e5288&#45;&gt;Node0xa3e5188</title>
<path fill="none" stroke="black" d="M622,-365.313C622,-357.289 622,-347.547 622,-338.569"/>
<polygon fill="black" stroke="black" points="625.5,-338.529 622,-328.529 618.5,-338.529 625.5,-338.529"/>
</g>
<!-- Node0xa3e5250 -->
<g id="node19" class="node"><title>Node0xa3e5250</title>
<polygon fill="none" stroke="black" points="713,-292.5 713,-328.5 767,-328.5 767,-292.5 713,-292.5"/>
<text text-anchor="middle" x="740" y="-306.8" font-family="Times,serif" font-size="14.00">IfStmt</text>
</g>
<!-- Node0xa3e5288&#45;&gt;Node0xa3e5250 -->
<g id="edge18" class="edge"><title>Node0xa3e5288&#45;&gt;Node0xa3e5250</title>
<path fill="none" stroke="black" d="M650.264,-365.494C666.405,-355.782 686.804,-343.508 704.073,-333.117"/>
<polygon fill="black" stroke="black" points="706.015,-336.033 712.779,-327.879 702.406,-330.035 706.015,-336.033"/>
</g>
<!-- Node0xa3e4fa0 -->
<g id="node16" class="node"><title>Node0xa3e4fa0</title>
<polygon fill="none" stroke="black" points="262,-219.5 262,-255.5 350,-255.5 350,-219.5 262,-219.5"/>
<text text-anchor="middle" x="306" y="-233.8" font-family="Times,serif" font-size="14.00">DeclRefExpr</text>
</g>
<!-- Node0xa3e4fe8&#45;&gt;Node0xa3e4fa0 -->
<g id="edge15" class="edge"><title>Node0xa3e4fe8&#45;&gt;Node0xa3e4fa0</title>
<path fill="none" stroke="black" d="M306,-292.313C306,-284.289 306,-274.547 306,-265.569"/>
<polygon fill="black" stroke="black" points="309.5,-265.529 306,-255.529 302.5,-265.529 309.5,-265.529"/>
</g>
<!-- Node0xa3e5118 -->
<g id="node20" class="node"><title>Node0xa3e5118</title>
<polygon fill="none" stroke="black" points="453.5,-219.5 453.5,-255.5 554.5,-255.5 554.5,-219.5 453.5,-219.5"/>
<text text-anchor="middle" x="504" y="-233.8" font-family="Times,serif" font-size="14.00">BinaryOperator</text>
</g>
<!-- Node0xa3e5188&#45;&gt;Node0xa3e5118 -->
<g id="edge19" class="edge"><title>Node0xa3e5188&#45;&gt;Node0xa3e5118</title>
<path fill="none" stroke="black" d="M594.928,-293.211C579.052,-283.659 558.762,-271.45 541.378,-260.99"/>
<polygon fill="black" stroke="black" points="542.965,-257.86 532.592,-255.703 539.356,-263.858 542.965,-257.86"/>
</g>
<!-- Node0xa3e5168 -->
<g id="node21" class="node"><title>Node0xa3e5168</title>
<polygon fill="none" stroke="black" points="573,-219.5 573,-255.5 671,-255.5 671,-219.5 573,-219.5"/>
<text text-anchor="middle" x="622" y="-233.8" font-family="Times,serif" font-size="14.00">UnaryOperator</text>
</g>
<!-- Node0xa3e5188&#45;&gt;Node0xa3e5168 -->
<g id="edge20" class="edge"><title>Node0xa3e5188&#45;&gt;Node0xa3e5168</title>
<path fill="none" stroke="black" d="M622,-292.313C622,-284.289 622,-274.547 622,-265.569"/>
<polygon fill="black" stroke="black" points="625.5,-265.529 622,-255.529 618.5,-265.529 625.5,-265.529"/>
</g>
<!-- Node0xa3e5220 -->
<g id="node28" class="node"><title>Node0xa3e5220</title>
<polygon fill="none" stroke="black" points="689.5,-219.5 689.5,-255.5 790.5,-255.5 790.5,-219.5 689.5,-219.5"/>
<text text-anchor="middle" x="740" y="-233.8" font-family="Times,serif" font-size="14.00">BinaryOperator</text>
</g>
<!-- Node0xa3e5250&#45;&gt;Node0xa3e5220 -->
<g id="edge27" class="edge"><title>Node0xa3e5250&#45;&gt;Node0xa3e5220</title>
<path fill="none" stroke="black" d="M740,-292.313C740,-284.289 740,-274.547 740,-265.569"/>
<polygon fill="black" stroke="black" points="743.5,-265.529 740,-255.529 736.5,-265.529 743.5,-265.529"/>
</g>
<!-- Node0xa3e5248 -->
<g id="node29" class="node"><title>Node0xa3e5248</title>
<polygon fill="none" stroke="black" points="808.5,-219.5 808.5,-255.5 883.5,-255.5 883.5,-219.5 808.5,-219.5"/>
<text text-anchor="middle" x="846" y="-233.8" font-family="Times,serif" font-size="14.00">BreakStmt</text>
</g>
<!-- Node0xa3e5250&#45;&gt;Node0xa3e5248 -->
<g id="edge28" class="edge"><title>Node0xa3e5250&#45;&gt;Node0xa3e5248</title>
<path fill="none" stroke="black" d="M765.39,-292.494C779.316,-283.166 796.771,-271.474 811.874,-261.358"/>
<polygon fill="black" stroke="black" points="814.09,-264.087 820.45,-255.614 810.194,-258.271 814.09,-264.087"/>
</g>
<!-- Node0xa3e50d0 -->
<g id="node22" class="node"><title>Node0xa3e50d0</title>
<polygon fill="none" stroke="black" points="344.5,-146.5 344.5,-182.5 445.5,-182.5 445.5,-146.5 344.5,-146.5"/>
<text text-anchor="middle" x="395" y="-160.8" font-family="Times,serif" font-size="14.00">BinaryOperator</text>
</g>
<!-- Node0xa3e5118&#45;&gt;Node0xa3e50d0 -->
<g id="edge21" class="edge"><title>Node0xa3e5118&#45;&gt;Node0xa3e50d0</title>
<path fill="none" stroke="black" d="M477.892,-219.494C463.437,-210.079 445.287,-198.255 429.657,-188.075"/>
<polygon fill="black" stroke="black" points="431.562,-185.139 421.273,-182.614 427.742,-191.004 431.562,-185.139"/>
</g>
<!-- Node0xa3e50f8 -->
<g id="node23" class="node"><title>Node0xa3e50f8</title>
<polygon fill="none" stroke="black" points="463.5,-146.5 463.5,-182.5 554.5,-182.5 554.5,-146.5 463.5,-146.5"/>
<text text-anchor="middle" x="509" y="-160.8" font-family="Times,serif" font-size="14.00">IntegerLiteral</text>
</g>
<!-- Node0xa3e5118&#45;&gt;Node0xa3e50f8 -->
<g id="edge22" class="edge"><title>Node0xa3e5118&#45;&gt;Node0xa3e50f8</title>
<path fill="none" stroke="black" d="M505.21,-219.313C505.775,-211.289 506.461,-201.547 507.094,-192.569"/>
<polygon fill="black" stroke="black" points="510.59,-192.75 507.801,-182.529 503.607,-192.258 510.59,-192.75"/>
</g>
<!-- Node0xa3e5140 -->
<g id="node27" class="node"><title>Node0xa3e5140</title>
<polygon fill="none" stroke="black" points="578,-146.5 578,-182.5 666,-182.5 666,-146.5 578,-146.5"/>
<text text-anchor="middle" x="622" y="-160.8" font-family="Times,serif" font-size="14.00">DeclRefExpr</text>
</g>
<!-- Node0xa3e5168&#45;&gt;Node0xa3e5140 -->
<g id="edge26" class="edge"><title>Node0xa3e5168&#45;&gt;Node0xa3e5140</title>
<path fill="none" stroke="black" d="M622,-219.313C622,-211.289 622,-201.547 622,-192.569"/>
<polygon fill="black" stroke="black" points="625.5,-192.529 622,-182.529 618.5,-192.529 625.5,-192.529"/>
</g>
<!-- Node0xa3e50b8 -->
<g id="node24" class="node"><title>Node0xa3e50b8</title>
<polygon fill="none" stroke="black" points="281,-73.5 281,-109.5 391,-109.5 391,-73.5 281,-73.5"/>
<text text-anchor="middle" x="336" y="-87.8" font-family="Times,serif" font-size="14.00">ImplicitCastExpr</text>
</g>
<!-- Node0xa3e50d0&#45;&gt;Node0xa3e50b8 -->
<g id="edge23" class="edge"><title>Node0xa3e50d0&#45;&gt;Node0xa3e50b8</title>
<path fill="none" stroke="black" d="M380.718,-146.313C373.471,-137.592 364.536,-126.84 356.564,-117.246"/>
<polygon fill="black" stroke="black" points="359.234,-114.983 350.151,-109.529 353.85,-119.457 359.234,-114.983"/>
</g>
<!-- Node0xa3e5098 -->
<g id="node25" class="node"><title>Node0xa3e5098</title>
<polygon fill="none" stroke="black" points="409.5,-73.5 409.5,-109.5 500.5,-109.5 500.5,-73.5 409.5,-73.5"/>
<text text-anchor="middle" x="455" y="-87.8" font-family="Times,serif" font-size="14.00">IntegerLiteral</text>
</g>
<!-- Node0xa3e50d0&#45;&gt;Node0xa3e5098 -->
<g id="edge24" class="edge"><title>Node0xa3e50d0&#45;&gt;Node0xa3e5098</title>
<path fill="none" stroke="black" d="M409.524,-146.313C416.894,-137.592 425.98,-126.84 434.088,-117.246"/>
<polygon fill="black" stroke="black" points="436.828,-119.426 440.609,-109.529 431.482,-114.908 436.828,-119.426"/>
</g>
<!-- Node0xa3e5070 -->
<g id="node26" class="node"><title>Node0xa3e5070</title>
<polygon fill="none" stroke="black" points="292,-0.5 292,-36.5 380,-36.5 380,-0.5 292,-0.5"/>
<text text-anchor="middle" x="336" y="-14.8" font-family="Times,serif" font-size="14.00">DeclRefExpr</text>
</g>
<!-- Node0xa3e50b8&#45;&gt;Node0xa3e5070 -->
<g id="edge25" class="edge"><title>Node0xa3e50b8&#45;&gt;Node0xa3e5070</title>
<path fill="none" stroke="black" d="M336,-73.3129C336,-65.2895 336,-55.5475 336,-46.5691"/>
<polygon fill="black" stroke="black" points="339.5,-46.5288 336,-36.5288 332.5,-46.5289 339.5,-46.5288"/>
</g>
<!-- Node0xa3e5208 -->
<g id="node30" class="node"><title>Node0xa3e5208</title>
<polygon fill="none" stroke="black" points="685,-146.5 685,-182.5 795,-182.5 795,-146.5 685,-146.5"/>
<text text-anchor="middle" x="740" y="-160.8" font-family="Times,serif" font-size="14.00">ImplicitCastExpr</text>
</g>
<!-- Node0xa3e5220&#45;&gt;Node0xa3e5208 -->
<g id="edge29" class="edge"><title>Node0xa3e5220&#45;&gt;Node0xa3e5208</title>
<path fill="none" stroke="black" d="M740,-219.313C740,-211.289 740,-201.547 740,-192.569"/>
<polygon fill="black" stroke="black" points="743.5,-192.529 740,-182.529 736.5,-192.529 743.5,-192.529"/>
</g>
<!-- Node0xa3e51e8 -->
<g id="node31" class="node"><title>Node0xa3e51e8</title>
<polygon fill="none" stroke="black" points="813.5,-146.5 813.5,-182.5 904.5,-182.5 904.5,-146.5 813.5,-146.5"/>
<text text-anchor="middle" x="859" y="-160.8" font-family="Times,serif" font-size="14.00">IntegerLiteral</text>
</g>
<!-- Node0xa3e5220&#45;&gt;Node0xa3e51e8 -->
<g id="edge30" class="edge"><title>Node0xa3e5220&#45;&gt;Node0xa3e51e8</title>
<path fill="none" stroke="black" d="M768.503,-219.494C784.43,-209.991 804.467,-198.036 821.637,-187.792"/>
<polygon fill="black" stroke="black" points="823.522,-190.743 830.317,-182.614 819.936,-184.732 823.522,-190.743"/>
</g>
<!-- Node0xa3e51c0 -->
<g id="node32" class="node"><title>Node0xa3e51c0</title>
<polygon fill="none" stroke="black" points="696,-73.5 696,-109.5 784,-109.5 784,-73.5 696,-73.5"/>
<text text-anchor="middle" x="740" y="-87.8" font-family="Times,serif" font-size="14.00">DeclRefExpr</text>
</g>
<!-- Node0xa3e5208&#45;&gt;Node0xa3e51c0 -->
<g id="edge31" class="edge"><title>Node0xa3e5208&#45;&gt;Node0xa3e51c0</title>
<path fill="none" stroke="black" d="M740,-146.313C740,-138.289 740,-128.547 740,-119.569"/>
<polygon fill="black" stroke="black" points="743.5,-119.529 740,-109.529 736.5,-119.529 743.5,-119.529"/>
</g>
</g>
</svg>
