<?xml version="1.0" encoding="UTF-8" standalone="no"?>
<!DOCTYPE svg PUBLIC "-//W3C//DTD SVG 1.1//EN"
 "http://www.w3.org/Graphics/SVG/1.1/DTD/svg11.dtd">
<!-- Generated by graphviz version 2.38.0 (20140413.2041)
 -->
<!-- Title: unnamed Pages: 1 -->
<svg width="489pt" height="988pt"
 viewBox="0.00 0.00 489.00 988.00" xmlns="http://www.w3.org/2000/svg" xmlns:xlink="http://www.w3.org/1999/xlink">
<g id="graph0" class="graph" transform="scale(1 1) rotate(0) translate(4 984)">
<title>unnamed</title>
<polygon fill="white" stroke="none" points="-4,4 -4,-984 485,-984 485,4 -4,4"/>
<!-- Node0xb74e710 -->
<g id="node1" class="node"><title>Node0xb74e710</title>
<polygon fill="none" stroke="black" points="223.5,-0.5 223.5,-36.5 308.5,-36.5 308.5,-0.5 223.5,-0.5"/>
<text text-anchor="start" x="231.5" y="-14.8" font-family="Times,serif" font-size="14.00">[B0 (EXIT)]</text>
</g>
<!-- Node0xb74e7e8 -->
<g id="node2" class="node"><title>Node0xb74e7e8</title>
<polygon fill="none" stroke="black" points="211,-73.5 211,-126.5 321,-126.5 321,-73.5 211,-73.5"/>
<text text-anchor="start" x="219" y="-111.3" font-family="Times,serif" font-size="14.00">[B1]</text>
<text text-anchor="start" x="219" y="-96.3" font-family="Times,serif" font-size="14.00"> 1: 0</text>
<text text-anchor="start" x="219" y="-81.3" font-family="Times,serif" font-size="14.00"> 2: return [B1.1];</text>
</g>
<!-- Node0xb74e7e8&#45;&gt;Node0xb74e710 -->
<g id="edge1" class="edge"><title>Node0xb74e7e8&#45;&gt;Node0xb74e710</title>
<path fill="none" stroke="black" d="M266,-73.4081C266,-64.9823 266,-55.5803 266,-47.0174"/>
<polygon fill="black" stroke="black" points="269.5,-46.7564 266,-36.7564 262.5,-46.7565 269.5,-46.7564"/>
</g>
<!-- Node0xb74e8c0 -->
<g id="node3" class="node"><title>Node0xb74e8c0</title>
<polygon fill="none" stroke="black" points="242,-163.5 242,-216.5 328,-216.5 328,-163.5 242,-163.5"/>
<text text-anchor="start" x="250" y="-201.3" font-family="Times,serif" font-size="14.00">[B2]</text>
<text text-anchor="start" x="250" y="-186.3" font-family="Times,serif" font-size="14.00"> 1: i</text>
<text text-anchor="start" x="250" y="-171.3" font-family="Times,serif" font-size="14.00"> 2: [B2.1]++</text>
</g>
<!-- Node0xb74edd8 -->
<g id="node4" class="node"><title>Node0xb74edd8</title>
<polygon fill="none" stroke="black" points="179,-643.5 179,-741.5 481,-741.5 481,-643.5 179,-643.5"/>
<text text-anchor="start" x="187" y="-726.3" font-family="Times,serif" font-size="14.00">[B7]</text>
<text text-anchor="start" x="187" y="-711.3" font-family="Times,serif" font-size="14.00"> 1: i</text>
<text text-anchor="start" x="187" y="-696.3" font-family="Times,serif" font-size="14.00"> 2: [B7.1] (ImplicitCastExpr, LValueToRValue, int)</text>
<text text-anchor="start" x="187" y="-681.3" font-family="Times,serif" font-size="14.00"> 3: 10</text>
<text text-anchor="start" x="187" y="-666.3" font-family="Times,serif" font-size="14.00"> 4: [B7.2] &lt; [B7.3]</text>
<text text-anchor="start" x="187" y="-651.3" font-family="Times,serif" font-size="14.00"> T: for (...; [B7.4]; ...)</text>
</g>
<!-- Node0xb74e8c0&#45;&gt;Node0xb74edd8 -->
<g id="edge2" class="edge"><title>Node0xb74e8c0&#45;&gt;Node0xb74edd8</title>
<path fill="none" stroke="black" d="M298.125,-216.571C303.095,-227.502 308.221,-240.585 311,-253 340.877,-386.486 338.196,-548.381 333.926,-633.206"/>
<polygon fill="black" stroke="black" points="330.42,-633.239 333.386,-643.41 337.41,-633.61 330.42,-633.239"/>
</g>
<!-- Node0xb74edd8&#45;&gt;Node0xb74e7e8 -->
<g id="edge10" class="edge"><title>Node0xb74edd8&#45;&gt;Node0xb74e7e8</title>
<path fill="none" stroke="black" d="M341.873,-643.437C344.507,-631.58 347.082,-618.875 349,-607 362.605,-522.784 368,-501.308 368,-416 368,-416 368,-416 368,-301.5 368,-238.421 369.246,-217.214 337,-163 330.465,-152.013 321.307,-141.958 311.736,-133.29"/>
<polygon fill="black" stroke="black" points="313.876,-130.514 304.013,-126.644 309.31,-135.82 313.876,-130.514"/>
</g>
<!-- Node0xb74ec40 -->
<g id="node8" class="node"><title>Node0xb74ec40</title>
<polygon fill="none" stroke="black" points="0,-478.5 0,-606.5 302,-606.5 302,-478.5 0,-478.5"/>
<text text-anchor="start" x="8" y="-591.3" font-family="Times,serif" font-size="14.00">[B6]</text>
<text text-anchor="start" x="8" y="-576.3" font-family="Times,serif" font-size="14.00"> 1: i</text>
<text text-anchor="start" x="8" y="-561.3" font-family="Times,serif" font-size="14.00"> 2: [B6.1] (ImplicitCastExpr, LValueToRValue, int)</text>
<text text-anchor="start" x="8" y="-546.3" font-family="Times,serif" font-size="14.00"> 3: 2</text>
<text text-anchor="start" x="8" y="-531.3" font-family="Times,serif" font-size="14.00"> 4: [B6.2] % [B6.3]</text>
<text text-anchor="start" x="8" y="-516.3" font-family="Times,serif" font-size="14.00"> 5: 0</text>
<text text-anchor="start" x="8" y="-501.3" font-family="Times,serif" font-size="14.00"> 6: [B6.4] == [B6.5]</text>
<text text-anchor="start" x="8" y="-486.3" font-family="Times,serif" font-size="14.00"> T: if [B6.6]</text>
</g>
<!-- Node0xb74edd8&#45;&gt;Node0xb74ec40 -->
<g id="edge9" class="edge"><title>Node0xb74edd8&#45;&gt;Node0xb74ec40</title>
<path fill="none" stroke="black" d="M271.884,-643.449C260.133,-633.733 247.556,-623.334 235.118,-613.05"/>
<polygon fill="black" stroke="black" points="237.337,-610.343 227.4,-606.669 232.876,-615.738 237.337,-610.343"/>
</g>
<!-- Node0xb74e998 -->
<g id="node5" class="node"><title>Node0xb74e998</title>
<polygon fill="none" stroke="black" points="129,-171 129,-209 199,-209 199,-171 129,-171"/>
<text text-anchor="start" x="137" y="-193.8" font-family="Times,serif" font-size="14.00">[B3]</text>
<text text-anchor="start" x="137" y="-178.8" font-family="Times,serif" font-size="14.00"> T: break;</text>
</g>
<!-- Node0xb74e998&#45;&gt;Node0xb74e7e8 -->
<g id="edge3" class="edge"><title>Node0xb74e998&#45;&gt;Node0xb74e7e8</title>
<path fill="none" stroke="black" d="M185.134,-170.766C197.64,-159.977 213.845,-145.997 228.461,-133.387"/>
<polygon fill="black" stroke="black" points="231.099,-135.734 236.384,-126.551 226.526,-130.433 231.099,-135.734"/>
</g>
<!-- Node0xb74ea70 -->
<g id="node6" class="node"><title>Node0xb74ea70</title>
<polygon fill="none" stroke="black" points="0,-253.5 0,-351.5 302,-351.5 302,-253.5 0,-253.5"/>
<text text-anchor="start" x="8" y="-336.3" font-family="Times,serif" font-size="14.00">[B4]</text>
<text text-anchor="start" x="8" y="-321.3" font-family="Times,serif" font-size="14.00"> 1: i</text>
<text text-anchor="start" x="8" y="-306.3" font-family="Times,serif" font-size="14.00"> 2: [B4.1] (ImplicitCastExpr, LValueToRValue, int)</text>
<text text-anchor="start" x="8" y="-291.3" font-family="Times,serif" font-size="14.00"> 3: 9</text>
<text text-anchor="start" x="8" y="-276.3" font-family="Times,serif" font-size="14.00"> 4: [B4.2] == [B4.3]</text>
<text text-anchor="start" x="8" y="-261.3" font-family="Times,serif" font-size="14.00"> T: if [B4.4]</text>
</g>
<!-- Node0xb74ea70&#45;&gt;Node0xb74e8c0 -->
<g id="edge5" class="edge"><title>Node0xb74ea70&#45;&gt;Node0xb74e8c0</title>
<path fill="none" stroke="black" d="M209.385,-253.355C221.877,-243.053 234.775,-232.417 246.304,-222.91"/>
<polygon fill="black" stroke="black" points="248.556,-225.589 254.045,-216.527 244.103,-220.188 248.556,-225.589"/>
</g>
<!-- Node0xb74ea70&#45;&gt;Node0xb74e998 -->
<g id="edge4" class="edge"><title>Node0xb74ea70&#45;&gt;Node0xb74e998</title>
<path fill="none" stroke="black" d="M156.664,-253.355C158.035,-241.7 159.457,-229.617 160.679,-219.225"/>
<polygon fill="black" stroke="black" points="164.178,-219.438 161.871,-209.098 157.226,-218.621 164.178,-219.438"/>
</g>
<!-- Node0xb74eb68 -->
<g id="node7" class="node"><title>Node0xb74eb68</title>
<polygon fill="none" stroke="black" points="144,-388.5 144,-441.5 230,-441.5 230,-388.5 144,-388.5"/>
<text text-anchor="start" x="152" y="-426.3" font-family="Times,serif" font-size="14.00">[B5]</text>
<text text-anchor="start" x="152" y="-411.3" font-family="Times,serif" font-size="14.00"> 1: a</text>
<text text-anchor="start" x="152" y="-396.3" font-family="Times,serif" font-size="14.00"> 2: [B5.1]++</text>
</g>
<!-- Node0xb74eb68&#45;&gt;Node0xb74ea70 -->
<g id="edge6" class="edge"><title>Node0xb74eb68&#45;&gt;Node0xb74ea70</title>
<path fill="none" stroke="black" d="M178.65,-388.371C175.971,-380.147 172.886,-370.679 169.771,-361.117"/>
<polygon fill="black" stroke="black" points="173.085,-359.989 166.659,-351.565 166.429,-362.157 173.085,-359.989"/>
</g>
<!-- Node0xb74ec40&#45;&gt;Node0xb74ea70 -->
<g id="edge8" class="edge"><title>Node0xb74ec40&#45;&gt;Node0xb74ea70</title>
<path fill="none" stroke="black" d="M138.794,-478.422C134.884,-450.698 132.209,-417.744 135,-388 135.811,-379.359 137.078,-370.286 138.553,-361.423"/>
<polygon fill="black" stroke="black" points="142.006,-361.994 140.293,-351.539 135.112,-360.78 142.006,-361.994"/>
</g>
<!-- Node0xb74ec40&#45;&gt;Node0xb74eb68 -->
<g id="edge7" class="edge"><title>Node0xb74ec40&#45;&gt;Node0xb74eb68</title>
<path fill="none" stroke="black" d="M169.105,-478.382C171.769,-469.096 174.43,-459.82 176.854,-451.369"/>
<polygon fill="black" stroke="black" points="180.286,-452.101 179.679,-441.523 173.557,-450.17 180.286,-452.101"/>
</g>
<!-- Node0xb74eef0 -->
<g id="node9" class="node"><title>Node0xb74eef0</title>
<polygon fill="none" stroke="black" points="269.5,-778.5 269.5,-906.5 390.5,-906.5 390.5,-778.5 269.5,-778.5"/>
<text text-anchor="start" x="277.5" y="-891.3" font-family="Times,serif" font-size="14.00">[B8]</text>
<text text-anchor="start" x="277.5" y="-876.3" font-family="Times,serif" font-size="14.00"> 1: int i;</text>
<text text-anchor="start" x="277.5" y="-861.3" font-family="Times,serif" font-size="14.00"> 2: 0</text>
<text text-anchor="start" x="277.5" y="-846.3" font-family="Times,serif" font-size="14.00"> 3: a</text>
<text text-anchor="start" x="277.5" y="-831.3" font-family="Times,serif" font-size="14.00"> 4: [B8.3] = [B8.2]</text>
<text text-anchor="start" x="277.5" y="-816.3" font-family="Times,serif" font-size="14.00"> 5: 0</text>
<text text-anchor="start" x="277.5" y="-801.3" font-family="Times,serif" font-size="14.00"> 6: i</text>
<text text-anchor="start" x="277.5" y="-786.3" font-family="Times,serif" font-size="14.00"> 7: [B8.6] = [B8.5]</text>
</g>
<!-- Node0xb74eef0&#45;&gt;Node0xb74edd8 -->
<g id="edge11" class="edge"><title>Node0xb74eef0&#45;&gt;Node0xb74edd8</title>
<path fill="none" stroke="black" d="M330,-778.305C330,-769.496 330,-760.478 330,-751.765"/>
<polygon fill="black" stroke="black" points="333.5,-751.708 330,-741.708 326.5,-751.708 333.5,-751.708"/>
</g>
<!-- Node0xb74f068 -->
<g id="node10" class="node"><title>Node0xb74f068</title>
<polygon fill="none" stroke="black" points="280.5,-943.5 280.5,-979.5 379.5,-979.5 379.5,-943.5 280.5,-943.5"/>
<text text-anchor="start" x="288.5" y="-957.8" font-family="Times,serif" font-size="14.00">[B9 (ENTRY)]</text>
</g>
<!-- Node0xb74f068&#45;&gt;Node0xb74eef0 -->
<g id="edge12" class="edge"><title>Node0xb74f068&#45;&gt;Node0xb74eef0</title>
<path fill="none" stroke="black" d="M330,-943.487C330,-936.024 330,-926.706 330,-916.78"/>
<polygon fill="black" stroke="black" points="333.5,-916.697 330,-906.697 326.5,-916.697 333.5,-916.697"/>
</g>
</g>
</svg>
